HIERARCHY
ROOT Hips
{
	OFFSET 0.00000 0.00000 0.00000
	CHANNELS 6 Xposition Yposition Zposition Zrotation Yrotation Xrotation 
	JOINT LHipJoint
	{
		OFFSET 0 0 0
		CHANNELS 3 Zrotation Yrotation Xrotation
		JOINT LeftUpLeg
		{
			OFFSET 1.53139 -1.83434 0.76626
			CHANNELS 3 Zrotation Yrotation Xrotation
			JOINT LeftLeg
			{
				OFFSET 2.56112 -7.03663 0.00000
				CHANNELS 3 Zrotation Yrotation Xrotation
				JOINT LeftFoot
				{
					OFFSET 2.59983 -7.14299 0.00000
					CHANNELS 3 Zrotation Yrotation Xrotation
					JOINT LeftToeBase
					{
						OFFSET 0.13742 -0.37757 2.00054
						CHANNELS 3 Zrotation Yrotation Xrotation
						End Site
						{
							OFFSET 0.00000 -0.00000 1.02897
						}
					}
				}
			}
		}
	}
	JOINT RHipJoint
	{
		OFFSET 0 0 0
		CHANNELS 3 Zrotation Yrotation Xrotation
		JOINT RightUpLeg
		{
			OFFSET -1.40122 -1.83435 0.76627
			CHANNELS 3 Zrotation Yrotation Xrotation
			JOINT RightLeg
			{
				OFFSET -2.54052 -6.98003 0.00000
				CHANNELS 3 Zrotation Yrotation Xrotation
				JOINT RightFoot
				{
					OFFSET -2.63179 -7.23079 0.00000
					CHANNELS 3 Zrotation Yrotation Xrotation
					JOINT RightToeBase
					{
						OFFSET -0.24131 -0.66299 2.03908
						CHANNELS 3 Zrotation Yrotation Xrotation
						End Site
						{
							OFFSET -0.00000 -0.00000 1.07391
						}
					}
				}
			}
		}
	}
	JOINT LowerBack
	{
		OFFSET 0 0 0
		CHANNELS 3 Zrotation Yrotation Xrotation
		JOINT Spine
		{
			OFFSET 0.01174 2.10302 -0.29778
			CHANNELS 3 Zrotation Yrotation Xrotation
			JOINT Spine1
			{
				OFFSET 0.00772 2.13227 -0.01247
				CHANNELS 3 Zrotation Yrotation Xrotation
				JOINT Neck
				{
					OFFSET 0 0 0
					CHANNELS 3 Zrotation Yrotation Xrotation
					JOINT Neck1
					{
						OFFSET -0.09219 1.60848 0.31481
						CHANNELS 3 Zrotation Yrotation Xrotation
						JOINT Head
						{
							OFFSET 0.13974 1.65456 -0.31134
							CHANNELS 3 Zrotation Yrotation Xrotation
							End Site
							{
								OFFSET 0.04742 1.69515 -0.14578
							}
						}
					}
				}
				JOINT LeftShoulder
				{
					OFFSET 0 0 0
					CHANNELS 3 Zrotation Yrotation Xrotation
					JOINT LeftArm
					{
						OFFSET 3.24909 1.02882 -0.23993
						CHANNELS 3 Zrotation Yrotation Xrotation
						JOINT LeftForeArm
						{
							OFFSET 5.32955 -0.00000 -0.00000
							CHANNELS 3 Zrotation Yrotation Xrotation
							JOINT LeftHand
							{
								OFFSET 3.69232 -0.00000 -0.00000
								CHANNELS 3 Zrotation Yrotation Xrotation
								JOINT LeftFingerBase
								{
									OFFSET 0 0 0
									CHANNELS 3 Zrotation Yrotation Xrotation
									JOINT LeftHandIndex1
									{
										OFFSET 0.53660 -0.00000 -0.00000
										CHANNELS 3 Zrotation Yrotation Xrotation
										End Site
										{
											OFFSET 0.43262 -0.00000 -0.00000
										}
									}
								}
								JOINT LThumb
								{
									OFFSET 0 0 0
									CHANNELS 3 Zrotation Yrotation Xrotation
									End Site
									{
										OFFSET 0.43922 -0.00000 0.43922
									}
								}
							}
						}
					}
				}
				JOINT RightShoulder
				{
					OFFSET 0 0 0
					CHANNELS 3 Zrotation Yrotation Xrotation
					JOINT RightArm
					{
						OFFSET -3.21387 0.93002 -0.34594
						CHANNELS 3 Zrotation Yrotation Xrotation
						JOINT RightForeArm
						{
							OFFSET -5.23431 -0.00000 0.00000
							CHANNELS 3 Zrotation Yrotation Xrotation
							JOINT RightHand
							{
								OFFSET -3.55301 -0.00000 -0.00000
								CHANNELS 3 Zrotation Yrotation Xrotation
								JOINT RightFingerBase
								{
									OFFSET 0 0 0
									CHANNELS 3 Zrotation Yrotation Xrotation
									JOINT RightHandIndex1
									{
										OFFSET -0.77252 -0.00000 -0.00000
										CHANNELS 3 Zrotation Yrotation Xrotation
										End Site
										{
											OFFSET -0.62283 -0.00000 -0.00000
										}
									}
								}
								JOINT RThumb
								{
									OFFSET 0 0 0
									CHANNELS 3 Zrotation Yrotation Xrotation
									End Site
									{
										OFFSET -0.63234 -0.00000 0.63234
									}
								}
							}
						}
					}
				}
			}
		}
	}
}
MOTION
Frames: 12
Frame Time: .0083333
-9.0184 17.6434 -12.2939 0 0 0 0 0 0 -21 0 0 0 0 0 0 0 0 0 0 0 0 0 0 21 0 0 0 0 0 0 0 0 0 0 0 0 0 0 0 0 0 0 0 0 0 0 -16 0 0 21 0 0 11 0 0 0 -8 0 0 0 0 0 0 0 0 0 0 0 0 0 0 0 0 0 0 0 0 8 0 0 0 0 0 0 0 0 0 0 0 0 0 0 0 0 0
-9.0184 17.6434 -12.2939 83.5351 -83.4833 -84.5599 0.0000 0.0000 0.0000 -23.0965 -6.2434 -3.1839 1.0964 6.6538 18.6936 0.1591 -8.8982 -8.8699 0.8535 -5.8920 -16.4713 0.0000 0.0000 0.0000 5.2161 -1.1314 -16.2658 -6.8361 -15.1923 48.2518 -0.1677 19.0786 -14.8370 -0.6355 5.1006 -14.1957 -2.1125 2.4908 13.4990 -0.0375 2.9296 0.9355 0.5961 1.4693 -6.6862 -6.7860 6.9098 -21.5224 1.3727 12.0372 38.6332 4.1041 3.6915 17.2530 -0.0000 0.0000 0.0000 -83.0708 -0.3823 20.3386 21.1862 -32.0451 -6.1485 -0.0000 0.0000 -1.7593 25.2548 21.7053 9.8964 -7.1250 0.0000 -0.0000 -3.7058 53.6974 -0.7933 -0.0000 0.0000 0.0000 82.4228 -2.1466 8.6421 -18.0893 28.2714 -4.5915 0.0000 0.0000 9.2087 -15.4212 11.4555 -3.1358 7.1250 -0.0000 -0.0000 8.2099 -18.1787 5.2935
-9.0147 17.6368 -12.2435 81.7577 -83.4685 -82.8006 0.0000 0.0000 0.0000 -23.2208 -6.1215 -3.5352 1.1530 6.8178 19.1767 0.1496 -9.3691 -8.9585 0.8023 -5.7167 -15.9647 0.0000 0.0000 0.0000 6.3925 -2.0907 -17.0298 -7.0568 -15.3795 49.0886 0.0243 20.8659 -14.4994 -0.5410 4.7128 -13.0911 -2.3357 2.4800 13.5325 -0.0663 2.8774 0.9673 0.7007 1.4490 -6.6793 -6.9608 6.8797 -21.4702 1.5927 11.9629 38.5952 4.2080 3.6780 17.1832 -0.0000 0.0000 0.0000 -82.9505 -0.5972 19.7691 21.2534 -32.1230 -6.1842 -0.0000 0.0000 -1.6870 25.1590 21.6264 9.8209 -7.1250 0.0000 -0.0000 -3.7822 53.5945 -0.8002 -0.0000 0.0000 0.0000 82.7364 -2.1949 8.6205 -18.3093 28.5514 -4.6961 0.0000 0.0000 9.1289 -15.4814 11.3440 -3.1184 7.1250 -0.0000 -0.0000 8.1689 -18.2887 5.2464
-9.0096 17.6186 -12.1933 79.5725 -83.5212 -80.6162 0.0000 0.0000 0.0000 -23.2911 -6.3331 -3.9100 1.2394 7.0596 19.8920 0.1669 -9.5059 -9.2722 0.8065 -5.7312 -16.0066 0.0000 0.0000 0.0000 7.7175 -3.1059 -17.7202 -7.2152 -15.5104 49.6835 0.1555 22.2686 -14.5119 -0.6525 5.1668 -14.3850 -2.4608 2.4666 13.5749 -0.0843 2.8373 0.9815 0.7585 1.4324 -6.6918 -7.1635 6.8145 -21.4325 1.8362 11.8383 38.4975 4.3149 3.6499 17.0840 0.0000 0.0000 0.0000 -82.8345 -0.7358 19.4199 21.3287 -32.2101 -6.2242 -0.0000 0.0000 -1.7780 25.4051 21.8564 10.0270 -7.1250 0.0000 -0.0000 -3.5937 53.8881 -0.7860 0.0000 0.0000 0.0000 82.9691 -2.3702 9.0537 -18.5675 28.8778 -4.8202 0.0000 0.0000 8.3659 -15.9320 11.2731 -3.1940 7.1250 -0.0000 -0.0000 7.8536 -18.3314 5.0325
-9.0065 17.6041 -12.1421 77.8019 -83.6549 -78.7956 0.0000 0.0000 0.0000 -23.3131 -6.6458 -4.2376 1.3180 7.2713 20.5218 0.1938 -9.3829 -9.5884 0.8688 -5.9430 -16.6191 0.0000 0.0000 0.0000 9.1824 -3.9792 -18.3619 -7.3504 -15.6200 50.1873 0.1895 22.9743 -14.7992 -0.8711 5.9507 -16.6413 -2.4826 2.4514 13.5165 -0.0829 2.8157 1.0080 0.7795 1.4219 -6.6314 -7.2888 6.7744 -21.3537 1.9427 11.7685 38.3595 4.3549 3.6369 16.9727 -0.0000 0.0000 0.0000 -82.6722 -0.9191 19.1594 21.3758 -32.2644 -6.2494 -0.0000 0.0000 -1.9837 25.3061 22.1359 10.1020 -7.1250 0.0000 -0.0000 -3.7804 54.1665 -0.8526 -0.0000 0.0000 0.0000 83.1556 -2.4624 9.5485 -18.7611 29.1207 -4.9140 0.0000 0.0000 7.3633 -16.5513 11.2870 -3.3290 7.1250 -0.0000 -0.0000 7.4192 -18.2750 4.7586
-9.0058 17.6010 -12.0944 76.1616 -83.8803 -77.1450 0.0000 0.0000 0.0000 -23.2251 -7.0595 -4.4847 1.4064 7.5013 21.2091 0.2194 -9.2346 -9.8733 0.8403 -5.8474 -16.3424 0.0000 0.0000 0.0000 10.7416 -4.5872 -18.7348 -7.4361 -15.6884 50.5052 0.2208 23.1897 -14.7315 -0.8890 6.0101 -16.8138 -2.4728 2.4682 13.4829 -0.0381 2.8434 1.0455 0.8182 1.4350 -6.5755 -7.2200 6.7596 -21.3244 1.8907 11.7336 38.3305 4.3120 3.6276 16.9638 0.0000 -0.0000 0.0000 -82.4855 -1.1869 18.9245 21.3595 -32.2456 -6.2407 -0.0000 0.0000 -2.2386 25.1440 22.3390 10.1152 -7.1250 0.0000 -0.0000 -4.0124 54.3505 -0.9231 0.0000 -0.0000 0.0000 83.4346 -2.4926 9.4851 -18.9335 29.3360 -4.9982 0.0000 0.0000 7.1994 -16.7343 11.1276 -3.3210 7.1250 -0.0000 -0.0000 7.2911 -18.4267 4.6504
-9.0030 17.5981 -12.0467 73.7155 -84.1081 -74.6147 0.0000 0.0000 0.0000 -23.0807 -7.5053 -4.8302 1.4954 7.7248 21.8814 0.2490 -9.1323 -10.2265 0.8413 -5.8506 -16.3517 0.0000 0.0000 0.0000 12.2712 -5.3052 -19.1830 -7.4788 -15.7222 50.6628 0.2614 23.2261 -14.4527 -0.8413 5.8506 -16.3516 -2.4171 2.4340 13.4413 0.0263 2.8131 1.0206 0.8617 1.4204 -6.5783 -7.2886 6.7717 -21.3165 1.9384 11.7601 38.3273 4.3473 3.6370 16.9474 -0.0000 0.0000 0.0000 -82.4232 -1.4237 18.3239 21.2536 -32.1232 -6.1842 -0.0000 0.0000 -2.2030 25.1742 22.2119 10.0752 -7.1250 0.0000 -0.0000 -3.9416 54.2212 -0.8943 -0.0000 0.0000 0.0000 83.6304 -2.5498 9.4471 -19.0620 29.4957 -5.0614 0.0000 0.0000 7.1688 -16.7910 11.1292 -3.3334 7.1250 -0.0000 -0.0000 7.2512 -18.4211 4.6255
-8.9997 17.5903 -11.9997 71.3017 -84.2664 -72.1286 0.0000 0.0000 0.0000 -22.9591 -7.5684 -5.3024 1.5800 7.9302 22.5023 0.2664 -9.3574 -10.5431 0.8808 -5.9828 -16.7346 0.0000 0.0000 0.0000 13.7026 -5.9709 -19.5201 -7.4760 -15.7200 50.6526 0.2831 23.1379 -14.2140 -0.8458 5.8660 -16.3960 -2.3926 2.3523 13.3816 0.0675 2.7136 1.0208 0.9128 1.3718 -6.5420 -7.3204 6.8391 -21.3641 1.9961 11.8604 38.3628 4.3999 3.6785 16.9611 -0.0000 0.0000 0.0000 -82.3698 -1.6165 17.6115 21.1844 -32.0430 -6.1475 -0.0000 0.0000 -2.1198 25.1829 22.2068 10.0770 -7.1250 0.0000 -0.0000 -3.9309 54.2175 -0.8915 -0.0000 0.0000 0.0000 83.7166 -2.6127 9.9984 -19.2154 29.6854 -5.1371 0.0000 0.0000 6.4348 -16.8156 11.0719 -3.3216 7.1250 -0.0000 -0.0000 7.2341 -18.4786 4.6051
-9.0018 17.5815 -11.9520 70.3743 -84.3429 -71.1391 0.0000 0.0000 0.0000 -22.9649 -7.5124 -5.7166 1.6576 8.1133 23.0586 0.2785 -9.6645 -10.8204 0.8477 -5.8724 -16.4145 0.0000 0.0000 0.0000 14.9575 -6.3013 -19.6331 -7.4336 -15.6864 50.4957 0.2950 22.8589 -13.8924 -0.7800 5.6386 -15.7392 -2.4409 2.3566 13.2327 0.0772 2.7174 1.0574 0.9558 1.3743 -6.4230 -7.3094 6.8972 -21.3627 1.9822 11.9526 38.4563 4.4139 3.7059 17.0067 -0.0000 0.0000 0.0000 -82.2419 -1.8439 17.3839 21.1108 -31.9575 -6.1085 -0.0000 0.0000 -2.1632 25.5146 22.1296 10.1927 -7.1250 0.0000 -0.0000 -3.5602 54.2014 -0.8059 -0.0000 0.0000 0.0000 83.8027 -2.6313 10.2804 -19.3023 29.7926 -5.1802 0.0000 0.0000 5.9598 -16.8220 11.0351 -3.3120 7.1250 -0.0000 -0.0000 7.2297 -18.5161 4.5962
-9.0047 17.5696 -11.9019 70.8207 -84.3120 -71.6102 0.0000 0.0000 0.0000 -23.1500 -7.5171 -5.9120 1.7236 8.2648 23.5214 0.2799 -9.9052 -10.9347 0.6968 -5.3359 -14.8692 0.0000 0.0000 0.0000 15.9577 -6.4764 -19.5358 -7.3616 -15.6290 50.2291 0.3592 22.7511 -13.2905 -0.5270 4.6523 -12.9196 -2.4884 2.4464 13.1653 -0.0405 2.8225 1.1125 0.8427 1.4237 -6.3271 -7.2978 6.9074 -21.2272 2.0290 11.9241 38.4441 4.4175 3.7082 16.9634 0.0000 -0.0000 0.0000 -82.1142 -2.0512 17.1488 21.0910 -31.9344 -6.0980 -0.0000 0.0000 -2.0154 26.2062 22.0296 10.4599 -7.1250 0.0000 -0.0000 -2.8050 54.2327 -0.6368 0.0000 -0.0000 0.0000 84.0931 -2.7165 10.2304 -19.4245 29.9428 -5.2411 0.0000 0.0000 6.0274 -16.7416 10.9029 -3.2564 7.1250 -0.0000 -0.0000 7.2867 -18.6579 4.6100
-9.0075 17.5568 -11.8539 71.6450 -84.1392 -72.4849 0.0000 0.0000 0.0000 -23.4833 -7.3725 -6.0713 1.7716 8.3732 23.8536 0.2698 -10.2612 -10.9602 0.5963 -4.9437 -13.7480 0.0000 0.0000 0.0000 16.6789 -6.5134 -19.2846 -7.2649 -15.5510 49.8694 0.5290 22.8497 -11.9714 -0.0933 1.9699 -5.4225 -2.6255 2.5659 13.1241 -0.2464 2.9466 1.1667 0.6828 1.4832 -6.2472 -7.3728 6.8889 -21.0554 2.2421 11.8125 38.3371 4.4835 3.7029 16.8399 0.0000 -0.0000 0.0000 -81.8949 -2.3127 16.8634 21.0251 -31.8576 -6.0632 -0.0000 0.0000 -1.8865 26.1135 21.9211 10.3704 -7.1250 0.0000 -0.0000 -2.8714 54.0977 -0.6425 0.0000 -0.0000 0.0000 84.4841 -2.8399 10.1692 -19.5331 30.0757 -5.2954 0.0000 0.0000 6.1717 -16.7359 10.9565 -3.2710 7.1250 -0.0000 -0.0000 7.2906 -18.6031 4.6214
-9.0096 17.5479 -11.8023 72.7001 -83.8756 -73.5097 0.0000 0.0000 0.0000 -23.9015 -7.0495 -6.3352 1.7997 8.4357 24.0455 0.2527 -10.8127 -10.9979 0.5678 -4.8260 -13.4128 0.0000 0.0000 0.0000 17.1506 -6.2812 -18.9628 -7.1508 -15.4576 49.4425 0.7187 22.7787 -10.2184 -0.0961 -1.9987 5.5021 -2.7832 2.6689 12.9880 -0.4774 3.0485 1.2023 0.5163 1.5325 -6.1328 -7.4201 6.8615 -20.8908 2.3891 11.7039 38.2329 4.5179 3.6906 16.7307 0.0000 0.0000 0.0000 -81.5522 -2.5589 16.6913 20.9754 -31.7997 -6.0370 -0.0000 0.0000 -2.0503 24.9359 22.0063 9.8829 -7.1250 0.0000 -0.0000 -4.1275 53.9554 -0.9098 0.0000 0.0000 0.0000 84.7560 -2.8735 10.2908 -19.5377 30.0813 -5.2977 0.0000 0.0000 6.0560 -17.0071 10.7969 -3.2793 7.1250 -0.0000 -0.0000 7.1000 -18.7496 4.4755
